<?xml version="1.0" encoding="utf-8"?>
<!-- Generator: Adobe Illustrator 13.0.0, SVG Export Plug-In . SVG Version: 6.00 Build 14948)  -->
<!DOCTYPE svg PUBLIC "-//W3C//DTD SVG 1.0//EN" "http://www.w3.org/TR/2001/REC-SVG-20010904/DTD/svg10.dtd">
<svg version="1.0" id="Capa_1" xmlns="http://www.w3.org/2000/svg" xmlns:xlink="http://www.w3.org/1999/xlink" x="0px" y="0px"
	 width="596.275px" height="842.89px" viewBox="0 0 596.275 842.89" enable-background="new 0 0 596.275 842.89"
	 xml:space="preserve">
<linearGradient id="SVGID_1_" gradientUnits="userSpaceOnUse" x1="298.0999" y1="841.2349" x2="298.0998" y2="-0.6553" gradientTransform="matrix(1 0 0 -1 0.0376 841.7344)">
	<stop  offset="0" style="stop-color:#F5F6DB"/>
	<stop  offset="1" style="stop-color:#DFE27A"/>
</linearGradient>
<rect x="0.5" y="0.5" fill="url(#SVGID_1_)" stroke="#FFFFFF" width="595.275" height="841.89"/>
<g>
	<path fill="#878A2F" d="M379.785,604.785c0.238,0,0.479,0,0.718,0c2.122,6.008,5.814,10.441,5.021,19.367
		c8.993,0.838,16.09-4.494,23.669-0.719c2.305,5.107,3.095,11.729,6.455,15.779c6.738-0.857,11.574-6.822,20.083-3.586
		c0,0.955,0,1.912,0,2.869c-7.466-8.096-12.67,6.123-22.234,2.15c-1.153,5.541-4.321,9.066-7.89,12.193
		c-3.176,0.783-3.567-1.215-5.738-1.436c0.237,5.502,1.122,10.354,0.719,16.496c4.971-1.426,12.431-2.16,16.495,0.719
		c-0.89,5.564-1.524,11.385-2.15,17.213c0.766,0.965,4.532,2.563,2.15,4.305c-1.479-0.195-0.171-3.178-2.15-2.869
		c-0.376,8.504,3.919,12.338,7.89,16.496c-11.37-5.178-13.422-21.629-8.606-33.711c-7.663,0.227-14.554,1.229-20.082,3.586
		c0.574,5.598-4.782,5.26-6.456,8.607c2.805,5.563,13.171,3.564,18.647,6.455c3.797,15.297,2.405,35.854-0.717,53.076
		c-0.173-1.264-1.234-1.637-2.869-1.436c6.731-11.635,2.725-34.309,1.436-48.771c-1.156-1.07-3.597,0.617-6.455,0
		c-5.25,0.121-11.667-5.881-13.628-4.305c1.34,11.811,12.471,13.828,15.778,23.67c-9.858,12.318-16.74,38.254-7.89,56.662
		c-1.136,0.061-2.735-0.346-2.869,0.717c-0.478,0-0.956,0-1.435,0c-3.936-20.281-1.764-44.453,9.325-57.379
		c-8.706-5.162-11.135-16.6-20.083-21.518c-0.354,3.916,2.166,7.271-1.436,8.605c18.678,12.449,0.356,47.008-10.042,55.229
		c-4.521,3.576-13.612,8.236-20.8,7.172c-12.572-1.861-18.451-17.566-16.496-32.275c1.887-14.199,14.316-32.051,25.104-35.145
		c2.04-0.586,6.337-0.982,10.041-0.717c1.613-4.707,6.765-1.426,7.891-6.455c-11.604,0.678-20.964-0.377-30.124,0
		c-3.566,12.516-11.463,24.152-21.519,31.559c-2.712,1.996-7.244,3.186-10.758,5.021c-3.024,1.58-5.73,5.158-8.606,3.586
		c0-0.957,0-1.912,0-2.869c22.231-5.262,31.774-23.213,40.883-41.6c8.629-3.1,24.497,5.768,28.688-3.588
		c-6.104,0.396-9.339-7.072-15.062-9.322c-3.496,10.609-19.469,8.742-27.256,15.061c-7.024-1.275-13.298,1.992-16.496,2.152
		c0.521-1.957-1.425-1.443-1.436-2.869c11.299-0.26,20.887-1.408,30.124-6.455c5.531-3.02,12.091-11.641,16.497-11.475
		c6.801,0.254,5.794,9.373,14.346,9.322c-0.512-7.842,2.335-19.793-0.719-30.842c-5.42,1.387-9.88,7.613-21.517,5.738
		c-4.97-0.801-13.548-2.881-12.193-7.172c11.977,10.541,23.571,1.213,36.579-2.152c-0.016,5.516,1.291,9.707,3.586,12.91
		c1.662-4.314,7.081-4.873,10.76-7.172c-5.223-4.215-2.073-13.52,0.717-17.932c-0.782-1.607-3.521-1.262-4.304-2.869
		C386.072,616.892,380.438,611.728,379.785,604.785z"/>
</g>
<g>
	<path fill="#878A2F" d="M230.279,605.416c0.309,0.127,0.621,0.256,0.931,0.385c-0.461,8.939,1.961,16.682-3.853,27.852
		c11.232,5.904,23.311,2.779,31.135,11.746c0.258,7.869-2.263,16.896-0.067,23.957c9.214,2.496,18.692-2.66,28.014,6.104
		c-0.515,1.24-1.025,2.484-1.537,3.727c-5.363-14.518-19.741,1.166-30.04-9.115c-4.468,6.578-10.472,9.463-16.782,11.611
		c-4.547-0.682-3.983-3.488-6.687-4.936c-2.64,7.271-4.089,14.053-7.905,21.813c7.221,0.814,17.308,3.855,21.046,9.771
		c-4.137,6.754-8.08,13.975-12.017,21.213c0.479,1.662,4.515,5.758,0.488,6.742c-1.815-1.045,1.48-4.219-1.258-4.879
		c-5.045,10.848-1.518,18.129,1.413,25.656c-11.998-12.816-5.851-35.291,6.877-48.404c-10.077-3.814-19.563-6.203-28.011-6.102
		c-2.251,7.58-9.031,4.271-12.999,7.725c0.663,8.73,15.201,11.688,20.77,18.377c-3.262,21.906-16.083,47.867-29.365,68.568
		c0.45-1.73-0.729-2.783-2.959-3.398c14.979-11.51,21.918-43.113,27.992-62.596c-0.928-2.012-5.003-1.121-8.387-3.459
		c-6.885-2.654-12.008-13.889-15.399-12.893c-4.585,16.063,8.793,24.646,7.819,39.205c-19.409,10.723-42.243,40.73-40.604,69.387
		c-1.506-0.529-3.368-1.914-4.111-0.604c-0.621-0.256-1.241-0.514-1.863-0.77c5.754-28.459,21.525-58.697,42.854-69.551
		c-8.546-11.369-5.572-27.529-14.564-38.713c-2.557,4.896-1.081,10.607-6.475,10.414c17.597,26.18-24.719,61.26-42.633,66.371
		c-7.791,2.221-22.099,3.406-30.866-1.828c-15.335-9.154-14.56-32.707-4.14-50.77c10.059-17.438,35.77-33.971,51.441-32.211
		c2.964,0.332,8.757,2.117,13.428,4.449c4.618-5.252,9.553,1.771,13.71-4.16c-15.438-5.336-27.034-11.721-39.137-16.139
		c-11.338,14.35-27.833,25.238-44.861,29.473c-4.595,1.143-11.12,0.256-16.667,0.758c-4.777,0.436-10.209,3.635-13.104,0.051
		c0.512-1.244,1.023-2.484,1.536-3.73c31.703,5.076,53.718-13.135,75.4-32.143c12.868,0.598,28.735,20.617,39.192,10.711
		c-8.141-2.756-8.343-14.193-14.572-20.184c-10.227,11.912-29.978,0.93-43.479,4.967c-8.442-5.424-18.343-4.537-22.585-6.041
		c1.728-2.264-1.077-2.639-0.326-4.496c14.816,5.715,27.888,9.355,42.594,7.752c8.805-0.963,21.944-8.648,27.581-6.07
		c8.697,3.973,2.506,15.281,13.642,19.799c3.538-10.463,13.637-24.465,15.59-40.453c-7.784-1.102-16.914,4.598-31.027-4.072
		c-6.028-3.703-16.058-11-11.999-15.852c9.911,20.111,29.974,14.203,48.675,16.801c-2.975,7.156-3.521,13.303-2.258,18.693
		c4.473-4.715,11.812-2.537,17.82-3.555c-4.525-8.273,4.549-18.674,10.538-22.91c-0.155-2.51-3.898-3.523-4.053-6.033
		C231.96,624.515,227.408,614.785,230.279,605.416z"/>
</g>
<g>
	<path fill="#878A2F" d="M501.455,518.39c0.165-0.061,0.33-0.121,0.495-0.182c2.986,3.598,6.656,5.715,8.373,12.064
		c6.409-1.705,9.941-7.182,16.122-6.506c2.883,2.936,5.108,7.293,8.452,9.23c4.423-2.301,6.24-7.637,12.922-7.57
		c0.244,0.66,0.486,1.318,0.729,1.979c-7.199-3.682-7.175,7.434-14.771,7.127c0.611,4.107-0.675,7.342-2.338,10.4
		c-1.988,1.348-2.766,0.07-4.316,0.471c1.561,3.729,3.401,6.846,4.684,11.18c3.062-2.244,8.013-4.645,11.544-3.693
		c0.801,4.059,1.84,8.23,2.889,12.402c0.772,0.469,3.773,0.615,2.574,2.418c-1.067,0.242-0.924-2.145-2.21-1.43
		c1.901,5.953,5.832,7.502,9.623,9.357c-9.146-0.68-14.736-11.488-14.487-21.033c-5.222,2.102-9.713,4.541-12.922,7.568
		c1.816,3.709-1.959,4.838-2.262,7.568c3.345,3.119,9.977-0.889,14.482-0.289c6.499,9.57,10.762,24.084,12.982,36.74
		c-0.439-0.826-1.267-0.814-2.341-0.26c1.683-9.723-6.834-24.322-11.396-33.959c-1.066-0.443-2.32,1.338-4.447,1.641
		c-3.584,1.416-9.527-1.088-10.479,0.496c3.921,7.793,12.101,6.357,16.879,12.297c-3.664,10.986-1.819,30.6,8.951,41.029
		c-0.768,0.33-1.973,0.455-1.795,1.223c-0.328,0.121-0.658,0.244-0.987,0.363c-7.859-12.971-12.501-30.172-8.145-41.889
		c-7.309-1.346-11.885-8.607-19.298-9.723c0.749,2.789,3.339,4.461,1.198,6.293c16.024,3.832,12.181,32.287,7.104,40.59
		c-2.208,3.611-7.285,9.129-12.506,10.221c-9.134,1.91-17.168-7.416-19.558-18.043c-2.306-10.262,1.724-25.711,8.367-30.582
		c1.257-0.92,4.115-2.285,6.734-3.041c-0.084-3.65,4.298-2.699,3.795-6.451c-7.82,3.414-14.535,5.064-20.749,7.648
		c0.722,9.525-1.764,19.549-6.81,27.201c-1.359,2.063-4.181,4.033-6.135,6.189c-1.682,1.857-2.638,5.008-5.018,4.654
		c-0.243-0.658-0.485-1.316-0.729-1.977c13.978-9.27,15.993-24.057,17.598-39.033c5.156-4.322,18.338-2.246,18.852-9.754
		c-4.104,1.822-8.229-2.502-12.742-2.6c0.285,8.197-11.189,10.967-14.949,17.295c-5.164,0.904-8.652,4.748-10.815,5.672
		c-0.138-1.48-1.349-0.633-1.718-1.611c7.718-3.049,14.028-6.275,19.11-12.096c3.042-3.484,5.372-11.09,8.45-12.094
		c4.748-1.551,6.37,4.986,12.247,2.781c-2.343-5.271-3.417-14.227-8.325-21.061c-3.38,2.33-4.872,7.752-13.363,9.414
		c-3.626,0.711-10.063,1.455-10.219-1.846c10.925,4.221,16.543-5.146,24.648-10.77c1.389,3.803,3.354,6.357,5.747,7.982
		c0.05-3.396,3.641-5.154,5.59-7.674c-4.666-1.576-4.86-8.783-4.06-12.529c-0.946-0.912-2.745,0.023-3.691-0.887
		C508.86,525.132,503.669,523.005,501.455,518.39z"/>
</g>
<g>
	<path fill="#878A2F" d="M480.225,683.595c0.182-0.049,0.363-0.104,0.545-0.152c2.895,4.102,6.646,6.676,7.951,13.615
		c7.003-1.289,11.242-6.854,17.802-5.609c2.839,3.381,4.855,8.232,8.272,10.588c4.927-2.094,7.317-7.652,14.466-7.02
		c0.206,0.727,0.41,1.451,0.613,2.176c-7.396-4.541-8.301,7.355-16.404,6.391c0.31,4.449-1.337,7.803-3.374,10.939
		c-2.241,1.273-2.967-0.158-4.661,0.139c1.357,4.121,3.068,7.613,4.076,12.359c3.465-2.146,8.966-4.301,12.664-2.986
		c0.519,4.412,1.28,8.963,2.054,13.518c0.787,0.566,3.988,0.977,2.552,2.807c-1.163,0.168-0.809-2.375-2.244-1.719
		c1.535,6.533,5.612,8.52,9.516,10.824c-9.733-1.494-14.812-13.533-13.744-23.727c-5.766,1.811-10.775,4.045-14.464,7.018
		c1.632,4.121-2.503,5.012-3.056,7.91c3.317,3.619,10.751-0.113,15.525,0.906c6.153,10.787,9.498,26.68,10.815,40.412
		c-0.401-0.922-1.286-0.977-2.484-0.477c2.616-10.266-5.274-26.605-9.35-37.301c-1.104-0.564-2.597,1.236-4.896,1.381
		c-3.955,1.215-10.105-1.963-11.257-0.346c3.543,8.67,12.419,7.818,17.035,14.576c-4.844,11.451-4.514,32.598,6.141,44.666
		c-0.848,0.289-2.146,0.322-2.022,1.156c-0.362,0.104-0.726,0.205-1.087,0.309c-7.324-14.541-10.853-33.344-5.206-45.52
		c-7.709-2.053-11.999-10.207-19.839-12.021c0.565,3.045,3.197,5.053,0.755,6.834c16.829,5.447,10.328,35.582,4.2,44.041
		c-2.667,3.682-8.563,9.16-14.241,9.891c-9.937,1.279-17.755-9.377-19.421-20.949c-1.606-11.178,3.999-27.377,11.521-32.031
		c1.423-0.881,4.597-2.102,7.464-2.691c0.217-3.914,4.825-2.527,4.602-6.586c-8.655,2.998-15.981,4.201-22.85,6.447
		c-0.025,10.256-3.525,20.773-9.567,28.541c-1.63,2.098-4.813,3.967-7.085,6.111c-1.955,1.848-3.241,5.141-5.761,4.563
		c-0.206-0.725-0.41-1.449-0.615-2.176c15.738-8.748,19.136-24.408,22.107-40.305c5.884-4.193,19.815-0.865,20.994-8.857
		c-4.545,1.604-8.597-3.369-13.418-3.852c-0.384,8.799-12.897,10.801-17.453,17.258c-5.601,0.533-9.659,4.357-12.051,5.164
		c-0.023-1.6-1.392-0.791-1.703-1.869c8.516-2.615,15.542-5.539,21.47-11.346c3.546-3.475,6.679-11.418,10.057-12.232
		c5.214-1.264,6.401,5.869,12.877,4.002c-2.064-5.838-2.465-15.514-7.146-23.24c-3.813,2.211-5.862,7.891-15.091,8.957
		c-3.941,0.459-10.895,0.713-10.783-2.832c11.34,5.436,18.138-4.121,27.285-9.461c1.167,4.188,3.057,7.088,5.48,9.025
		c0.34-3.629,4.329-5.211,6.628-7.742c-4.862-2.078-4.467-9.811-3.295-13.752c-0.938-1.055-2.938-0.203-3.878-1.258
		C487.586,691.433,482.206,688.722,480.225,683.595z"/>
</g>
<g>
	<path fill="#878A2F" d="M428.418,453.9c0.123-0.035,0.247-0.068,0.371-0.104c1.96,2.803,4.508,4.566,5.375,9.297
		c4.774-0.855,7.679-4.633,12.144-3.768c1.924,2.313,3.283,5.623,5.604,7.234c3.362-1.408,5.01-5.188,9.875-4.736
		c0.139,0.496,0.275,0.988,0.412,1.484c-5.024-3.117-5.676,4.986-11.193,4.305c0.197,3.031-0.936,5.311-2.331,7.439
		c-1.53,0.861-2.021-0.117-3.175,0.082c0.912,2.813,2.066,5.195,2.738,8.432c2.367-1.451,6.12-2.902,8.637-1.996
		c0.34,3.006,0.846,6.107,1.357,9.213c0.535,0.389,2.713,0.676,1.73,1.918c-0.793,0.111-0.544-1.619-1.525-1.176
		c1.026,4.453,3.799,5.818,6.45,7.4c-6.626-1.047-10.048-9.264-9.291-16.203c-3.933,1.217-7.354,2.725-9.874,4.738
		c1.101,2.811-1.72,3.406-2.105,5.379c2.25,2.475,7.325-0.047,10.574,0.662c4.159,7.367,6.39,18.201,7.247,27.559
		c-0.271-0.627-0.874-0.668-1.69-0.328c1.813-6.984-3.515-18.141-6.258-25.438c-0.75-0.389-1.771,0.836-3.34,0.926
		c-2.697,0.816-6.88-1.365-7.667-0.27c2.388,5.916,8.437,5.361,11.563,9.979c-3.333,7.787-3.172,22.193,4.049,30.443
		c-0.578,0.195-1.464,0.215-1.382,0.783c-0.247,0.068-0.494,0.139-0.741,0.207c-4.946-9.93-7.292-22.746-3.41-31.021
		c-5.245-1.422-8.143-6.99-13.479-8.25c0.378,2.078,2.163,3.453,0.492,4.66c11.448,3.758,6.933,24.266,2.731,30.01
		c-1.826,2.5-5.859,6.215-9.73,6.695c-6.771,0.842-12.064-6.439-13.166-14.328c-1.062-7.619,2.807-18.635,7.942-21.785
		c0.972-0.596,3.137-1.418,5.091-1.811c0.16-2.666,3.296-1.707,3.156-4.475c-5.906,2.018-10.899,2.814-15.585,4.324
		c-0.048,6.986-2.463,14.141-6.603,19.414c-1.115,1.422-3.29,2.688-4.845,4.141c-1.338,1.254-2.224,3.492-3.938,3.092
		c-0.139-0.494-0.274-0.988-0.412-1.484c10.746-5.912,13.105-16.568,15.18-27.387c4.02-2.84,13.5-0.533,14.326-5.975
		c-3.102,1.082-5.846-2.318-9.13-2.662c-0.286,5.992-8.816,7.318-11.938,11.705c-3.818,0.348-6.594,2.938-8.226,3.479
		c-0.011-1.086-0.944-0.539-1.154-1.277c5.809-1.756,10.604-3.727,14.657-7.662c2.428-2.355,4.585-7.758,6.889-8.305
		c3.554-0.844,4.341,4.018,8.758,2.766c-1.39-3.982-1.633-10.574-4.797-15.852c-2.604,1.494-4.02,5.354-10.308,6.057
		c-2.688,0.299-7.423,0.453-7.338-1.961c7.709,3.734,12.368-2.756,18.615-6.363c0.78,2.855,2.06,4.838,3.707,6.164
		c0.24-2.471,2.964-3.537,4.535-5.254c-3.306-1.432-3.012-6.695-2.201-9.379c-0.636-0.721-2.003-0.146-2.639-0.867
		C433.408,459.261,429.753,457.398,428.418,453.9z"/>
</g>
<g>
	<path fill="#878A2F" d="M504.181,393.448c0.081-0.059,0.162-0.117,0.242-0.175c2.181,1.498,4.506,2.085,6.42,5.276
		c3.226-1.917,4.304-5.442,7.771-6.029c2.021,1.153,3.906,3.183,6.025,3.72c2.053-1.934,2.219-5.12,5.867-6.114
		c0.233,0.321,0.468,0.642,0.701,0.963c-4.487-0.894-2.759,5.154-6.94,6.159c0.968,2.142,0.766,4.101,0.333,6.023
		c-0.875,1.04-1.495,0.464-2.277,0.921c1.424,1.789,2.908,3.202,4.274,5.364c1.32-1.694,3.645-3.765,5.714-3.792
		c1.063,2.085,2.271,4.197,3.486,6.306c0.492,0.136,2.147-0.248,1.773,0.918c-0.544,0.297-0.834-1.025-1.425-0.438
		c1.954,2.948,4.333,3.184,6.685,3.61c-5.086,1.041-9.796-3.981-11.133-9.215c-2.518,1.95-4.587,3.971-5.865,6.115
		c1.561,1.737-0.32,2.935-0.064,4.469c2.302,1.182,5.294-2.023,7.84-2.393c5.016,4.207,9.574,11.45,12.737,17.995
		c-0.367-0.381-0.814-0.246-1.314,0.221c-0.585-5.553-7.474-12.186-11.441-16.727c-0.649-0.077-1.06,1.087-2.169,1.578
		c-1.731,1.324-5.354,0.879-5.627,1.888c3.337,3.636,7.566,1.593,11.086,4.089c-0.3,6.547,3.73,16.938,11.202,20.953
		c-0.364,0.299-1.002,0.553-0.788,0.941c-0.159,0.119-0.319,0.234-0.479,0.352c-6.28-5.848-11.462-14.496-10.897-21.545
		c-4.187,0.396-7.798-2.853-12.006-2.314c0.838,1.4,2.506,1.912,1.623,3.24c9.314-0.387,11.613,15.695,10.131,20.998
		c-0.644,2.309-2.556,6.096-5.229,7.494c-4.677,2.449-10.489-1.387-13.43-6.803c-2.839-5.23-3.029-14.262-0.164-17.941
		c0.542-0.693,1.888-1.877,3.195-2.693c-0.607-1.975,1.925-2.131,1.071-4.098c-3.73,3.064-7.132,4.998-10.116,7.365
		c1.863,5.074,2.059,10.914,0.492,15.857c-0.423,1.334-1.653,2.842-2.385,4.316c-0.63,1.271-0.663,3.133-2.015,3.309
		c-0.233-0.32-0.467-0.643-0.7-0.963c6.178-7.203,4.993-15.564,3.557-23.965c2.14-3.148,9.636-4.053,8.756-8.219
		c-1.952,1.625-4.865-0.092-7.337,0.553c1.42,4.416-4.398,7.695-5.469,11.723c-2.673,1.287-3.979,3.92-5.014,4.754
		c-0.305-0.785-0.831-0.135-1.185-0.611c3.73-2.85,6.669-5.58,8.537-9.533c1.118-2.365,1.214-6.865,2.734-7.887
		c2.345-1.576,4.235,1.731,7.096-0.376c-2.089-2.508-4.056-7.217-7.781-10.18c-1.479,1.791-1.457,4.971-5.822,7.187
		c-1.863,0.947-5.253,2.346-5.848,0.573c6.599,0.611,8.211-5.355,11.756-9.667c1.342,1.856,2.808,2.945,4.36,3.459
		c-0.496-1.856,1.187-3.368,1.859-5.039c-2.784-0.139-4.002-4.033-4.144-6.196c-0.656-0.35-1.491,0.437-2.146,0.088
		C509.255,395.976,506.099,395.62,504.181,393.448z"/>
</g>
<g>
	<path fill="#878A2F" d="M529.464,281.749c0.057-0.015,0.112-0.029,0.169-0.043c0.858,1.285,1.992,2.106,2.342,4.253
		c2.164-0.342,3.512-2.021,5.521-1.588c0.848,1.063,1.43,2.572,2.464,3.323c1.531-0.605,2.313-2.297,4.508-2.047
		c0.057,0.225,0.113,0.449,0.171,0.674c-2.241-1.456-2.612,2.2-5.1,1.839c0.063,1.372-0.473,2.39-1.122,3.34
		c-0.7,0.374-0.913-0.072-1.437,0.006c0.386,1.279,0.885,2.367,1.158,3.835c1.083-0.632,2.792-1.253,3.92-0.82
		c0.124,1.36,0.324,2.769,0.526,4.176c0.237,0.18,1.22,0.33,0.764,0.882c-0.359,0.043-0.23-0.737-0.679-0.546
		c0.422,2.021,1.661,2.666,2.844,3.405c-2.983-0.536-4.451-4.28-4.042-7.408c-1.789,0.512-3.35,1.16-4.508,2.046
		c0.472,1.282-0.81,1.523-1.002,2.411c0.992,1.14,3.309,0.048,4.771,0.4c1.812,3.368,2.715,8.285,3.014,12.521
		c-0.115-0.286-0.388-0.311-0.761-0.164c0.885-3.14-1.416-8.23-2.586-11.553c-0.336-0.182-0.81,0.361-1.518,0.387
		c-1.228,0.344-3.097-0.683-3.462-0.194c1.021,2.696,3.76,2.503,5.128,4.619c-1.579,3.487-1.643,9.997,1.542,13.794
		c-0.265,0.083-0.664,0.083-0.633,0.339c-0.11,0.03-0.225,0.059-0.337,0.087c-2.142-4.533-3.078-10.346-1.246-14.047
		c-2.356-0.694-3.612-3.237-6.013-3.857c0.151,0.942,0.945,1.581,0.179,2.111c5.139,1.807,2.902,11.029,0.949,13.585
		c-0.848,1.112-2.705,2.752-4.459,2.933c-3.068,0.316-5.391-3.023-5.813-6.6c-0.407-3.451,1.443-8.393,3.795-9.767
		c0.445-0.26,1.432-0.61,2.317-0.77c0.099-1.203,1.507-0.739,1.469-1.991c-2.688,0.854-4.951,1.167-7.083,1.806
		c-0.087,3.157-1.247,6.366-3.167,8.709c-0.519,0.632-1.513,1.184-2.228,1.826c-0.618,0.552-1.039,1.556-1.811,1.358
		c-0.058-0.224-0.112-0.449-0.171-0.674c4.909-2.571,6.078-7.363,7.119-12.231c1.842-1.246,6.104-0.112,6.528-2.563
		c-1.412,0.459-2.62-1.104-4.102-1.289c-0.186,2.704-4.052,3.223-5.504,5.176c-1.729,0.12-3.008,1.265-3.749,1.494
		c0.005-0.492-0.422-0.253-0.511-0.588c2.642-0.738,4.826-1.584,6.695-3.323c1.119-1.042,2.146-3.462,3.19-3.687
		c1.613-0.348,1.924,1.855,3.932,1.332c-0.59-1.813-0.638-4.794-2.017-7.207c-1.191,0.651-1.867,2.381-4.717,2.638
		c-1.216,0.11-3.356,0.135-3.296-0.956c3.447,1.76,5.613-1.127,8.473-2.698c0.323,1.297,0.884,2.206,1.614,2.82
		c0.134-1.114,1.373-1.57,2.101-2.331c-1.479-0.678-1.297-3.054-0.905-4.258c-0.28-0.333-0.903-0.086-1.185-0.417
		C531.668,284.219,530.033,283.343,529.464,281.749z"/>
</g>
</svg>
